<?xml version="1.0" encoding="utf-8"?>
<!-- Generator: Adobe Illustrator 18.0.0, SVG Export Plug-In . SVG Version: 6.00 Build 0)  -->
<!DOCTYPE svg PUBLIC "-//W3C//DTD SVG 1.1//EN" "http://www.w3.org/Graphics/SVG/1.1/DTD/svg11.dtd">
<svg version="1.1"
	 id="svg6003" xmlns:dc="http://purl.org/dc/elements/1.1/" xmlns:cc="http://creativecommons.org/ns#" xmlns:rdf="http://www.w3.org/1999/02/22-rdf-syntax-ns#" xmlns:svg="http://www.w3.org/2000/svg" xmlns:sodipodi="http://sodipodi.sourceforge.net/DTD/sodipodi-0.dtd" xmlns:inkscape="http://www.inkscape.org/namespaces/inkscape" inkscape:version="0.48.1 " sodipodi:docname="Prefecture de police Logo.svg"
	 xmlns="http://www.w3.org/2000/svg" xmlns:xlink="http://www.w3.org/1999/xlink" x="0px" y="0px" viewBox="0.2 402.3 1280.5 63.3"
	 enable-background="new 0.2 402.3 1280.5 63.3" xml:space="preserve">
<g id="layer1" transform="translate(10.342876,149.45116)" inkscape:label="Layer 1" inkscape:groupmode="layer">
	<g id="g10863" transform="matrix(6.5333099,0,0,-6.5333099,-2739.5181,4726.4423)">
		<g id="g3055" transform="translate(419.5514,713.4661)">
			<path id="path3057" inkscape:connector-curvature="0" fill="#FFFFFF" d="M1.3-33.6c0.3,0,0.7,0,1,0c0.7,0,2.9,0,2.9,2.1
				c0,1.9-2.4,2.1-3.3,2.1c-0.5,0-0.7-0.2-0.7-0.5V-33.6z M-1.8-28.9h4.5c2.2,0,4.5-0.7,4.5-2.4c0-1-0.7-1.7-1-1.9
				c-0.7-0.5-1.7-0.9-3.6-0.9c-0.3,0-0.7,0-1.2,0v-2.6c0-1,0.3-1.2,1.6-1.2v-0.3h-4.7v0.3c1.4,0,1.4,0.3,1.4,1.4v6.1
				c0,1-0.2,1.2-1.4,1.2V-28.9z"/>
		</g>
		<g id="g3059" transform="translate(425.0103,713.5617)">
			<path id="path3061" inkscape:connector-curvature="0" fill="#FFFFFF" d="M5.3-33.5c1.4,0,4,0,4,2.1c0,1.9-2.2,1.9-2.9,1.9
				c-0.9,0-1-0.2-1-0.5V-33.5z M13.1-38.3h-2.8L6.2-34H5.3v-2.8c0-0.9,0.2-1.2,1.6-1.2v-0.3H2.2v0.3c1.4,0,1.4,0.3,1.4,1.4v6.1
				c0,1-0.2,1.2-1.4,1.2v0.3h4.7c1.6,0,4.3-0.3,4.3-2.4c0-1.9-2.2-2.2-3.1-2.2l3.5-3.5c0.3-0.5,0.7-0.9,1.6-0.9V-38.3z"/>
		</g>
		<g id="g3063" transform="translate(434.9398,710.8118)">
			<path id="path3065" inkscape:connector-curvature="0" fill="#FFFFFF" d="M12.5-35.5H3.4v0.3c1,0,1.6,0.2,1.6,1.2v6.2
				c0,1-0.3,1.2-1.6,1.2v0.3h9v-1.9H12c-0.3,1-0.7,1.2-2.6,1.2H7.2c-0.3,0-0.5,0-0.5-0.5v-2.9h2.6c1.6,0,1.7,0.3,1.9,1.4h0.3v-3.3
				h-0.3c-0.3,1-0.5,1.2-1.9,1.2H6.7v-3.5c0-0.5,0-0.5,2.6-0.5c2.1,0,2.9,0.3,3.6,1.9h0.5L12.5-35.5z"/>
		</g>
		<g id="g3067" transform="translate(439.9779,712.665)">
			<path id="path3069" inkscape:connector-curvature="0" fill="#FFFFFF" d="M16.2-34.2c-0.2,1.2-0.5,1.4-1.9,1.4h-2.4v-3.1
				c0-1,0.3-1.2,1.6-1.2v-0.3H8.8v0.3c1.2,0,1.6,0.3,1.6,1.4v6.1c0,1-0.3,1.2-1.6,1.2v0.3h9V-30h-0.5c-0.2,1-0.7,1.2-2.6,1.2h-2.2
				c-0.3,0-0.5,0-0.5-0.5v-2.9h2.4c1.4,0,1.7,0.3,1.9,1.4h0.3v-3.3H16.2z"/>
		</g>
		<g id="g3071" transform="translate(446.3564,710.8118)">
			<path id="path3073" inkscape:connector-curvature="0" fill="#FFFFFF" d="M20.9-35.5h-9.2v0.3c1,0,1.4,0.2,1.4,1.2v6.2
				c0,1-0.3,1.2-1.4,1.2v0.3h9v-1.9h-0.3c-0.3,1-0.7,1.2-2.6,1.2h-2.2c-0.3,0-0.5,0-0.5-0.5v-2.9h2.6c1.6,0,1.7,0.3,1.9,1.4h0.3
				v-3.3h-0.3c-0.3,1-0.5,1.2-1.9,1.2H15v-3.5c0-0.5,0-0.5,2.6-0.5c2.1,0,2.9,0.3,3.6,1.9h0.5L20.9-35.5z"/>
		</g>
		<g id="g3075" transform="translate(452.7737,714.4283)">
			<path id="path3077" inkscape:connector-curvature="0" fill="#FFFFFF" d="M25.6-32.9c-0.3,1.4-1.6,2.6-3.8,2.6
				c-0.9,0-1.9-0.3-2.6-0.9c-0.5-0.5-1.2-1.4-1.2-3.5c0-2.9,2.1-4.2,4.2-4.2s3.3,1,3.8,1.4l0.3-0.2c0,0-1.6-1.7-4.7-1.7
				c-2.8,0-5.7,1.2-5.7,4.7c0,3.1,2.8,4.8,5.7,4.8c1.6,0,2.6-0.5,2.9-0.5c0,0,0.7,0,0.9,0.5h0.3l0.2-3.1H25.6z"/>
		</g>
		<g id="g3079" transform="translate(457.8805,710.8118)">
			<path id="path3081" inkscape:connector-curvature="0" fill="#FFFFFF" d="M29.3-35.5h-5v0.3c1.6,0,1.7,0.3,1.7,1.4v6.9h-0.9
				c-1.9,0-2.2-0.3-2.8-1.7H22l0.2,2.4h9.5l0.2-2.4h-0.7c-0.3,1.4-0.7,1.7-2.6,1.7h-0.9v-7.1c0-0.9,0.2-1.2,1.6-1.2V-35.5z"/>
		</g>
		<g id="g3083" transform="translate(466.3327,715.9682)">
			<path id="path3085" inkscape:connector-curvature="0" fill="#FFFFFF" d="M35.4-31.7c-1.4-0.2-1.6-0.3-1.6-1.7v-3.6
				c0-1,0-3.8-4.3-3.8c-4.2,0-4.2,2.8-4.2,3.5v4.3c-0.2,1.2-0.3,1.4-1.7,1.4v0.3h4.8v-0.3c-1.4,0-1.6-0.3-1.6-1.2v-4.5
				c0-0.9,0-2.8,2.9-2.8c1.4,0,2.2,0.5,2.8,1c0.2,0.3,0.3,0.7,0.3,1.9v3.8c0,1.6-0.3,1.7-1.6,1.7v0.3h4V-31.7z"/>
		</g>
		<g id="g3087" transform="translate(468.4945,713.5617)">
			<path id="path3089" inkscape:connector-curvature="0" fill="#FFFFFF" d="M37-33.5c1.4,0,4,0,4,2.1c0,1.9-2.2,1.9-2.9,1.9
				c-0.9,0-1-0.2-1-0.5V-33.5z M44.8-38.3H42L37.9-34H37v-2.8c0-0.9,0.2-1.2,1.6-1.2v-0.3h-4.7v0.3c1.4,0,1.4,0.3,1.4,1.4v6.1
				c0,1-0.2,1.2-1.4,1.2v0.3h4.7c1.6,0,4.3-0.3,4.3-2.4c0-1.9-2.2-2.2-3.1-2.2l3.5-3.5c0.3-0.3,0.9-0.7,1.6-0.7V-38.3z"/>
		</g>
		<g id="g3091" transform="translate(478.4243,710.8118)">
			<path id="path3093" inkscape:connector-curvature="0" fill="#FFFFFF" d="M44.3-35.5h-9.2v0.3c1,0,1.6,0.2,1.6,1.2v6.2
				c0,1-0.3,1.2-1.6,1.2v0.3h9v-1.9h-0.3c-0.3,1-0.7,1.2-2.6,1.2h-2.2c-0.3,0-0.5,0-0.5-0.5v-2.9H41c1.6,0,1.7,0.3,1.9,1.4h0.3v-3.3
				h-0.3c-0.3,1-0.5,1.2-1.9,1.2h-2.6v-3.5c0-0.5,0-0.5,2.6-0.5c2.1,0,2.9,0.3,3.6,1.9h0.5L44.3-35.5z"/>
		</g>
		<g id="g3095" transform="translate(483.4617,711.4373)">
			<path id="path3097" inkscape:connector-curvature="0" fill="#FFFFFF" d="M47.9-35c0-0.5,0.2-0.5,1-0.5c1,0,5.2,0,5.2,4
				c0,1.2-0.3,2.2-1.6,3.1c-0.9,0.5-1.7,1-4,1c-0.7,0-0.7-0.3-0.7-0.5V-35z M44.6-35.9c1.4,0.2,1.6,0.3,1.6,1.2v6.2
				c0,1-0.2,1.2-1.6,1.2v0.3h4.5c4,0,6.7-1.6,6.7-4.7c0-1.9-1.4-4.5-6.6-4.5h-4.8v0.2H44.6z"/>
		</g>
		<g id="g3099" transform="translate(493.91,710.8118)">
			<path id="path3101" inkscape:connector-curvature="0" fill="#FFFFFF" d="M55.6-35.5h-9.2v0.3c1,0,1.6,0.2,1.6,1.2v6.2
				c0,1-0.3,1.2-1.6,1.2v0.3h9v-1.9H55c-0.2,1-0.7,1.2-2.6,1.2h-2.2c-0.3,0-0.5,0-0.5-0.5v-2.9h2.6c1.6,0,1.7,0.3,1.9,1.4h0.3v-3.3
				h-0.3c-0.3,1-0.5,1.2-1.9,1.2h-2.6v-3.5c0-0.5,0-0.5,2.6-0.5c2.1,0,2.9,0.3,3.6,1.9h0.5L55.6-35.5z"/>
		</g>
		<g id="g3103" transform="translate(498.909,713.4661)">
			<path id="path3105" inkscape:connector-curvature="0" fill="#FFFFFF" d="M59.2-33.6c0.3,0,0.7,0,1,0c0.7,0,2.9,0,2.9,2.1
				c0,1.9-2.4,2.1-3.3,2.1c-0.5,0-0.7-0.2-0.7-0.5V-33.6z M56.1-28.9h4.5c2.4,0,4.5-0.7,4.5-2.4c0-1-0.7-1.7-1-1.9
				c-0.7-0.5-1.7-0.9-3.6-0.9c-0.3,0-0.7,0-1.2,0v-2.6c0-1,0.3-1.2,1.6-1.2v-0.3h-4.7v0.3c1.4,0,1.4,0.3,1.4,1.4v6.1
				c0,1-0.2,1.2-1.4,1.2V-28.9z"/>
		</g>
		<g id="g3107" transform="translate(507.9868,713.4661)">
			<path id="path3109" inkscape:connector-curvature="0" fill="#FFFFFF" d="M65.8-33.6c0,3.1-1.9,4.3-3.6,4.3s-3.6-1.2-3.6-4.3
				c0-3.1,1.7-4.3,3.6-4.3C64.1-37.9,65.8-36.7,65.8-33.6 M56.7-33.6c0,3.1,2.8,4.8,5.5,4.8c2.8,0,5.5-1.7,5.5-4.8
				c0-2.9-2.4-4.8-5.5-4.8C59.1-38.4,56.7-36.5,56.7-33.6"/>
		</g>
		<g id="g3111" transform="translate(512.3114,715.9682)">
			<path id="path3113" inkscape:connector-curvature="0" fill="#FFFFFF" d="M69-31.7c-1.2,0-1.6-0.2-1.6-1.2v-6.6
				c0-0.5,0.3-0.5,1.7-0.5c2.6,0,3.6,0,4.7,1.9h0.3l-0.9-2.6h-9.2v0.3c1,0,1.6,0.2,1.6,1.2v6.2c0,1-0.3,1.2-1.6,1.2v0.3H69V-31.7z"
				/>
		</g>
		<g id="g3115" transform="translate(515.5886,710.9641)">
			<path id="path3117" inkscape:connector-curvature="0" fill="#FFFFFF" d="M71.4-35.4c1.4,0,1.6,0.3,1.6,1.2v6.2
				c0,1-0.2,1.2-1.6,1.2v0.3h5v-0.3c-1.2,0-1.7-0.2-1.7-1.2v-6.2c0-1,0.3-1.2,1.7-1.2v-0.3h-5V-35.4z"/>
		</g>
		<g id="g3119" transform="translate(524.5111,714.4283)">
			<path id="path3121" inkscape:connector-curvature="0" fill="#FFFFFF" d="M77.9-32.9c-0.3,1.4-1.6,2.6-3.8,2.6
				c-0.9,0-1.9-0.3-2.6-0.9c-0.5-0.5-1.2-1.4-1.2-3.5c0-2.9,2.1-4.2,4.2-4.2c2.1,0,3.3,1,3.8,1.4l0.3-0.2c0,0-1.6-1.7-4.7-1.7
				c-2.8,0-5.7,1.2-5.7,4.7c0,3.1,2.8,4.8,5.7,4.8c1.6,0,2.6-0.5,2.9-0.5c0,0,0.7,0,0.7,0.5h0.3l0.3-3.1H77.9z"/>
		</g>
		<g id="g3123" transform="translate(530.5959,710.8118)">
			<path id="path3125" inkscape:connector-curvature="0" fill="#FFFFFF" d="M82.3-35.5h-9.2v0.3c1,0,1.6,0.2,1.6,1.2v6.2
				c0,1-0.3,1.2-1.6,1.2v0.3h9v-1.9h-0.3c-0.3,1-0.7,1.2-2.6,1.2h-2.2c-0.3,0-0.5,0-0.5-0.5v-2.9H79c1.6,0,1.7,0.3,1.9,1.4h0.3v-3.3
				h-0.3c-0.3,1-0.5,1.2-1.9,1.2h-2.6v-3.5c0-0.5,0-0.5,2.6-0.5c2.1,0,2.9,0.3,3.6,1.9h0.5L82.3-35.5z"/>
		</g>
	</g>
</g>
</svg>
